<svg width="512" height="512" viewBox="0 0 512 512" fill="none" xmlns="http://www.w3.org/2000/svg">
  <defs>
    <linearGradient id="brandMarkGradient" x1="44" y1="36" x2="468" y2="476" gradientUnits="userSpaceOnUse">
      <stop offset="0" stop-color="#FF6B35" />
      <stop offset="0.55" stop-color="#F7418F" />
      <stop offset="1" stop-color="#7C3AED" />
    </linearGradient>
  </defs>

  <rect x="0" y="0" width="512" height="512" rx="154" fill="url(#brandMarkGradient)" />

  <g transform="translate(118 116) scale(11.5)">
    <path
      d="M4 9.5C4 8.67 4.67 8 5.5 8H18.5C19.33 8 20 8.67 20 9.5V18C20 19.1 19.1 20 18 20H6C4.9 20 4 19.1 4 18V9.5Z"
      fill="white"
      fill-opacity="0.92"
    />
    <path
      d="M5.3 4H18.7C19.74 4 20.42 5.08 19.97 6.02L19.03 8H4.97L4.03 6.02C3.58 5.08 4.26 4 5.3 4Z"
      fill="white"
    />
    <path d="M7.2 4.9L5.9 7.4" stroke="#FFB7D1" stroke-width="1.2" stroke-linecap="round" />
    <path d="M11.05 4.9L9.75 7.4" stroke="#FFB7D1" stroke-width="1.2" stroke-linecap="round" />
    <path d="M14.9 4.9L13.6 7.4" stroke="#FFB7D1" stroke-width="1.2" stroke-linecap="round" />
    <path d="M18.75 4.9L17.45 7.4" stroke="#FFB7D1" stroke-width="1.2" stroke-linecap="round" />
    <path d="M8 12.1V16.8" stroke="#FFCFDF" stroke-width="1.25" stroke-linecap="round" opacity="0.85" />
    <path d="M12 12.1V16.8" stroke="#FFCFDF" stroke-width="1.25" stroke-linecap="round" opacity="0.85" />
    <path d="M16 12.1V16.8" stroke="#FFCFDF" stroke-width="1.25" stroke-linecap="round" opacity="0.85" />
  </g>
</svg>
